<svg width="373" height="65" viewBox="0 0 373 65" fill="none" xmlns="http://www.w3.org/2000/svg">
<path d="M41.408 17.1714C41.408 17.4506 41.2971 17.7298 41.0754 18.009L25.6098 39.201L40.9923 62.4871C41.1031 62.5988 41.1585 62.8222 41.1585 63.1572C41.1585 63.8832 40.7982 64.2461 40.0776 64.2461H27.5222C27.0787 64.2461 26.6907 64.1903 26.3581 64.0786C26.0809 63.9111 25.7761 63.576 25.4435 63.0735L13.4701 43.3892V62.4871C13.4701 62.9338 13.3038 63.3527 12.9712 63.7436C12.6386 64.0786 12.2506 64.2461 11.8071 64.2461H1.74612C1.30266 64.2461 0.886918 64.0786 0.498891 63.7436C0.166297 63.3527 0 62.9338 0 62.4871V1.67526C0 1.22852 0.166297 0.837626 0.498891 0.502576C0.886918 0.167525 1.30266 0 1.74612 0H11.8071C12.2506 0 12.6386 0.167525 12.9712 0.502576C13.3038 0.837626 13.4701 1.22852 13.4701 1.67526V36.6881L26.1087 17.5064C26.4413 17.0039 26.8016 16.6688 27.1896 16.5013C27.5776 16.3338 27.9379 16.25 28.2705 16.25H40.1608C40.9923 16.25 41.408 16.5571 41.408 17.1714Z" fill="#465177"/>
<path d="M86.2049 43.2217C86.2049 46.5722 85.7338 49.5876 84.7914 52.268C83.9045 54.9485 82.5741 57.238 80.8003 59.1366C79.0819 60.9794 76.92 62.4313 74.3147 63.4923C71.7648 64.4974 68.7992 65 65.4178 65C62.0364 65 59.0431 64.4974 56.4377 63.4923C53.8879 62.4313 51.726 60.9794 49.9522 59.1366C48.1783 57.238 46.8202 54.9485 45.8779 52.268C44.991 49.5876 44.5475 46.5722 44.5475 43.2217V37.3582C44.5475 34.0077 44.991 30.9923 45.8779 28.3119C46.8202 25.6314 48.1783 23.3698 49.9522 21.5271C51.726 19.6284 53.8879 18.1765 56.4377 17.1714C59.0431 16.1104 62.0364 15.5799 65.4178 15.5799C68.7992 15.5799 71.7648 16.1104 74.3147 17.1714C76.92 18.1765 79.0819 19.6284 80.8003 21.5271C82.5741 23.3698 83.9045 25.6314 84.7914 28.3119C85.7338 30.9923 86.2049 34.0077 86.2049 37.3582V43.2217ZM72.818 37.3582C72.818 30.5455 70.3513 27.1392 65.4178 27.1392C62.9788 27.1392 61.1218 28.0047 59.8468 29.7358C58.5719 31.4111 57.9344 33.9519 57.9344 37.3582V43.2217C57.9344 46.628 58.5719 49.1967 59.8468 50.9278C61.1218 52.6589 62.9788 53.5245 65.4178 53.5245C70.3513 53.5245 72.818 50.0902 72.818 43.2217V37.3582Z" fill="#465177"/>
<path d="M135.124 17.674C135.124 17.8973 135.097 18.0649 135.041 18.1765L124.564 56.2049C124.065 58.0477 123.373 59.5554 122.486 60.7281C121.654 61.9008 120.684 62.7942 119.575 63.4085C118.522 64.0228 117.386 64.4416 116.166 64.6649C114.947 64.8883 113.727 65 112.508 65C111.288 65 110.069 64.8883 108.849 64.6649C107.63 64.4416 106.493 64.0228 105.44 63.4085C104.387 62.7942 103.417 61.9008 102.53 60.7281C101.699 59.5554 101.033 58.0477 100.534 56.2049L90.1409 18.1765C90.0854 18.0649 90.0577 17.8973 90.0577 17.674C90.0577 16.7247 90.5012 16.25 91.3881 16.25H102.364C102.807 16.25 103.167 16.4175 103.445 16.7526C103.777 17.0876 103.999 17.5064 104.11 18.009L111.261 50.8441C111.482 52.0168 111.898 52.6031 112.508 52.6031C113.173 52.6031 113.616 52.0168 113.838 50.8441L120.989 18.009C121.1 17.5064 121.294 17.0876 121.571 16.7526C121.904 16.4175 122.292 16.25 122.735 16.25H133.711C134.099 16.25 134.431 16.3896 134.709 16.6688C134.986 16.8922 135.124 17.2272 135.124 17.674Z" fill="#465177"/>
<path d="M183.846 62.5709C183.846 63.0176 183.68 63.4085 183.347 63.7436C183.015 64.0786 182.627 64.2461 182.183 64.2461H144.434C143.491 64.2461 142.688 64.0507 142.022 63.6598C141.357 63.2689 141.025 62.5988 141.025 61.6495V54.9485C141.025 54.3342 141.108 53.7758 141.274 53.2732C141.44 52.7148 141.773 52.0447 142.272 51.2629L165.47 15.9149C165.692 15.6357 165.803 15.3565 165.803 15.0773C165.803 14.6306 165.498 14.4072 164.888 14.4072H144.184C143.741 14.4072 143.353 14.2676 143.02 13.9884C142.688 13.6534 142.521 13.2625 142.521 12.8157V3.6018C142.521 3.15507 142.688 2.79209 143.02 2.51288C143.353 2.17783 143.741 2.01031 144.184 2.01031H180.021C180.908 2.01031 181.684 2.20575 182.349 2.59665C183.015 2.98754 183.347 3.57388 183.347 4.35567V4.94201C183.347 5.10954 183.347 5.3329 183.347 5.61211C183.403 5.83548 183.43 6.08677 183.43 6.36598C183.43 6.98024 183.403 7.62242 183.347 8.29252C183.347 8.90679 183.347 9.49313 183.347 10.0515V11.9781C183.347 12.704 183.125 13.43 182.682 14.1559L159.234 50.3415C158.957 50.7324 158.818 51.0395 158.818 51.2629C158.818 51.6538 159.123 51.8492 159.733 51.8492H182.183C182.627 51.8492 183.015 51.9888 183.347 52.268C183.68 52.5473 183.846 52.9102 183.846 53.357V62.5709Z" fill="#465177"/>
<path d="M228.14 62.5709C228.14 63.0176 227.973 63.4085 227.641 63.7436C227.308 64.0786 226.92 64.2461 226.477 64.2461H217.164C216.72 64.2461 216.332 64.0786 216 63.7436C215.667 63.4085 215.501 63.0176 215.501 62.5709V61.2307C213.893 62.4034 212.175 63.3247 210.346 63.9948C208.572 64.6649 206.438 65 203.943 65C202.114 65 200.34 64.7487 198.622 64.2461C196.959 63.7994 195.462 63.0176 194.132 61.9008C192.801 60.7839 191.72 59.3041 190.889 57.4613C190.113 55.6186 189.725 53.329 189.725 50.5928V49.8389C189.725 44.9248 191.332 41.3509 194.548 39.1173C197.818 36.8277 203.029 35.683 210.179 35.683H214.669V32.6675C214.669 30.2663 214.115 28.7027 213.007 27.9768C211.898 27.2509 210.373 26.8879 208.433 26.8879C207.103 26.8879 205.745 26.9158 204.359 26.9716C203.029 26.9716 201.726 26.9996 200.451 27.0554C199.232 27.1113 198.123 27.195 197.125 27.3067C196.127 27.3625 195.296 27.4184 194.631 27.4742H194.215C193.771 27.4742 193.411 27.3625 193.134 27.1392C192.857 26.9158 192.718 26.5249 192.718 25.9665V19.1817C192.718 18.2324 193.245 17.6181 194.298 17.3389C195.85 16.948 197.929 16.5571 200.534 16.1662C203.195 15.7753 205.911 15.5799 208.683 15.5799C211.676 15.5799 214.365 15.9149 216.748 16.5851C219.187 17.1993 221.238 18.2045 222.901 19.6005C224.564 20.9407 225.839 22.6997 226.726 24.8776C227.668 26.9996 228.14 29.5962 228.14 32.6675V62.5709ZM214.919 43.7242H210.179C208.738 43.7242 207.546 43.8638 206.604 44.143C205.662 44.3664 204.913 44.7294 204.359 45.232C203.805 45.7345 203.417 46.3767 203.195 47.1585C202.973 47.9403 202.862 48.8338 202.862 49.8389V50.5928C202.862 52.3797 203.278 53.5245 204.11 54.0271C204.997 54.5296 206.327 54.7809 208.101 54.7809C209.376 54.7809 210.568 54.6134 211.676 54.2784C212.84 53.8875 213.921 53.4407 214.919 52.9381V43.7242Z" fill="#465177"/>
<path d="M278.987 62.4871C278.987 62.9338 278.793 63.3527 278.405 63.7436C278.072 64.0786 277.684 64.2461 277.241 64.2461H267.18C266.736 64.2461 266.348 64.0786 266.016 63.7436C265.683 63.3527 265.517 62.9338 265.517 62.4871V34.5941C265.517 33.1422 265.434 31.9137 265.267 30.9085C265.101 29.9034 264.796 29.0936 264.353 28.4794C263.909 27.8651 263.272 27.4463 262.44 27.2229C261.664 26.9437 260.639 26.8041 259.364 26.8041C258.144 26.8041 256.897 27.0554 255.622 27.558C254.347 28.0606 252.989 28.7027 251.548 29.4845V62.4871C251.548 62.9338 251.382 63.3527 251.049 63.7436C250.716 64.0786 250.328 64.2461 249.885 64.2461H239.824C239.38 64.2461 238.965 64.0786 238.577 63.7436C238.244 63.3527 238.078 62.9338 238.078 62.4871V17.9253C238.078 17.4785 238.244 17.0876 238.577 16.7526C238.909 16.4175 239.297 16.25 239.741 16.25H249.053C249.497 16.25 249.885 16.4175 250.217 16.7526C250.55 17.0876 250.716 17.4785 250.716 17.9253V19.9356C252.989 18.3161 255.151 17.1993 257.202 16.5851C259.253 15.9149 261.609 15.5799 264.27 15.5799C267.263 15.5799 269.702 16.0825 271.587 17.0876C273.527 18.0928 275.023 19.4609 276.077 21.192C277.185 22.8673 277.934 24.8776 278.322 27.2229C278.765 29.5125 278.987 31.9695 278.987 34.5941V62.4871Z" fill="#465177"/>
<path d="M330.398 17.1714C330.398 17.4506 330.287 17.7298 330.065 18.009L314.6 39.201L329.982 62.4871C330.093 62.5988 330.149 62.8222 330.149 63.1572C330.149 63.8832 329.788 64.2461 329.068 64.2461H316.512C316.069 64.2461 315.681 64.1903 315.348 64.0786C315.071 63.9111 314.766 63.576 314.434 63.0735L302.46 43.3892V62.4871C302.46 62.9338 302.294 63.3527 301.961 63.7436C301.629 64.0786 301.241 64.2461 300.797 64.2461H290.736C290.293 64.2461 289.877 64.0786 289.489 63.7436C289.156 63.3527 288.99 62.9338 288.99 62.4871V1.67526C288.99 1.22852 289.156 0.837626 289.489 0.502576C289.877 0.167525 290.293 0 290.736 0H300.797C301.241 0 301.629 0.167525 301.961 0.502576C302.294 0.837626 302.46 1.22852 302.46 1.67526V36.6881L315.099 17.5064C315.431 17.0039 315.792 16.6688 316.18 16.5013C316.568 16.3338 316.928 16.25 317.261 16.25H329.151C329.982 16.25 330.398 16.5571 330.398 17.1714Z" fill="#465177"/>
<path d="M373 62.5709C373 63.0176 372.834 63.4085 372.501 63.7436C372.168 64.0786 371.78 64.2461 371.337 64.2461H362.024C361.581 64.2461 361.193 64.0786 360.86 63.7436C360.528 63.4085 360.361 63.0176 360.361 62.5709V61.2307C358.754 62.4034 357.035 63.3247 355.206 63.9948C353.432 64.6649 351.298 65 348.804 65C346.974 65 345.201 64.7487 343.482 64.2461C341.819 63.7994 340.323 63.0176 338.992 61.9008C337.662 60.7839 336.581 59.3041 335.749 57.4613C334.973 55.6186 334.585 53.329 334.585 50.5928V49.8389C334.585 44.9248 336.193 41.3509 339.408 39.1173C342.678 36.8277 347.889 35.683 355.04 35.683H359.53V32.6675C359.53 30.2663 358.976 28.7027 357.867 27.9768C356.758 27.2509 355.234 26.8879 353.294 26.8879C351.963 26.8879 350.605 26.9158 349.22 26.9716C347.889 26.9716 346.586 26.9996 345.312 27.0554C344.092 27.1113 342.983 27.195 341.986 27.3067C340.988 27.3625 340.156 27.4184 339.491 27.4742H339.075C338.632 27.4742 338.272 27.3625 337.994 27.1392C337.717 26.9158 337.579 26.5249 337.579 25.9665V19.1817C337.579 18.2324 338.105 17.6181 339.159 17.3389C340.711 16.948 342.789 16.5571 345.395 16.1662C348.055 15.7753 350.772 15.5799 353.543 15.5799C356.537 15.5799 359.225 15.9149 361.609 16.5851C364.048 17.1993 366.099 18.2045 367.762 19.6005C369.425 20.9407 370.7 22.6997 371.586 24.8776C372.529 26.9996 373 29.5962 373 32.6675V62.5709ZM359.779 43.7242H355.04C353.599 43.7242 352.407 43.8638 351.465 44.143C350.522 44.3664 349.774 44.7294 349.22 45.232C348.665 45.7345 348.277 46.3767 348.055 47.1585C347.834 47.9403 347.723 48.8338 347.723 49.8389V50.5928C347.723 52.3797 348.139 53.5245 348.97 54.0271C349.857 54.5296 351.187 54.7809 352.961 54.7809C354.236 54.7809 355.428 54.6134 356.537 54.2784C357.701 53.8875 358.782 53.4407 359.779 52.9381V43.7242Z" fill="#465177"/>
</svg>
